PathFileType	4	(X/Y/Z)	/Users/niels/Desktop/University/Third Semester/Perception and Action/Exam/Gymnastics Motion Tracking/Code for Gym Tracking/Analyzed Data/Webcam_Backflip/id2001_2_baseline_Sports2D/id2001_2_baseline_Sports2D_px_person00.trc
DataRate	CameraRate	NumFrames	NumMarkers	Units	OrigDataRate	OrigDataStartFrame	OrigNumFrames
29.888475836431226	29.888475836431226	12	22	m	29.888475836431226	33	269
Frame#	Time	Hip			RHip			RKnee			RAnkle			RBigToe			RSmallToe			RHeel			LHip			LKnee			LAnkle			LBigToe			LSmallToe			LHeel			Neck			Head			Nose			RShoulder			RElbow			RWrist			LShoulder			LElbow			LWrist		
		X1	Y1	Z1	X2	Y2	Z2	X3	Y3	Z3	X4	Y4	Z4	X5	Y5	Z5	X6	Y6	Z6	X7	Y7	Z7	X8	Y8	Z8	X9	Y9	Z9	X10	Y10	Z10	X11	Y11	Z11	X12	Y12	Z12	X13	Y13	Z13	X14	Y14	Z14	X15	Y15	Z15	X16	Y16	Z16	X17	Y17	Z17	X18	Y18	Z18	X19	Y19	Z19	X20	Y20	Z20	X21	Y21	Z21	X22	Y22	Z22
33	1.1041044776119404	0.989162356254885	-0.7174103291426251	0.0	0.9965940853887209	-0.7150126234324929	0.0	1.3606990894070354	-0.929814955567548	0.0	1.3419004538426442	-1.0875772474942602	0.0	1.847283293069237	-1.0764913275180255	0.0	1.5701837905381222	-1.1020390301352805	0.0	1.3268155134097845	-1.1069575299743901	0.0	0.9539700396453219	-0.7273313174544161	0.0	1.0421916263596376	-1.0621284575788719	0.0	1.3308725837344242	-1.069103227775953	0.0	1.416982421875	-1.0925839843750003	0.0	1.4258959960937496	-1.08961279296875	0.0	1.2331186523118969	-1.0844750976757034	0.0	1.0207853349509408	-0.22649585933517552	0.0	1.0650649888253803	-0.02275732790046073	0.0	1.087606568907212	-0.13395371736795675	0.0	0.9720258275597973	-0.25469334913682357	0.0	1.217213527063166	-0.32397465461668384	0.0	1.4819435752895722	-0.33202399505508384	0.0	1.0352496710829808	-0.31436494862923414	0.0	1.1867488818514151	-0.5019986195829128	0.0	1.3973106239880506	-0.5044330035838045	0.0
34	1.1375621890547265	0.9889989945814451	-0.7107460584204575	0.0	0.9920545924059015	-0.7081268571221251	0.0	1.375213840646549	-0.8832706026076389	0.0	1.3494112820076067	-1.0885742416073267	0.0	1.8401933355882873	-1.0764027995236642	0.0	1.570317141549162	-1.101794228088948	0.0	1.330561511117784	-1.107137093478067	0.0	0.9576250258158094	-0.7223403123571813	0.0	1.044499569134927	-1.0652570236476828	0.0	1.3318826229743812	-1.069052048604452	0.0	1.416982421875	-1.0925839843750003	0.0	1.4258959960937496	-1.08961279296875	0.0	1.2331186523632864	-1.084475097715109	0.0	1.021200686933549	-0.22764935374162945	0.0	1.0655671505249849	-0.02432239829663142	0.0	1.086923581816411	-0.13490016883598274	0.0	0.968959447403742	-0.2554917026245905	0.0	1.2146630767505915	-0.3199863911340322	0.0	1.4766046613710415	-0.3264769539281262	0.0	1.0482928711933792	-0.3200924376566751	0.0	1.1965104400468443	-0.4974826777889887	0.0	1.4077458095607247	-0.4990416124053172	0.0
35	1.1710199004975126	0.9885359069541167	-0.704469045536847	0.0	0.9860462299743934	-0.7017539680740564	0.0	1.3845326726361398	-0.8359921339761215	0.0	1.3602525400084051	-1.0882422069955264	0.0	1.8231346253921377	-1.0759550603741848	0.0	1.571101839476146	-1.1010714395363448	0.0	1.3384481879756729	-1.1070707592404196	0.0	0.962525416984335	-0.7176088277664641	0.0	1.0437615782801666	-1.068604750159119	0.0	1.336585978921525	-1.0687491504575046	0.0	1.416982421875	-1.0925839843750003	0.0	1.4258959960937496	-1.08961279296875	0.0	1.2331186524750066	-1.0844750977720956	0.0	1.0224774578435953	-0.2281701857997184	0.0	1.0670504735034225	-0.025809999997425597	0.0	1.087126112868615	-0.13564570656317326	0.0	0.9672813912030835	-0.2560318112815434	0.0	1.2120325638915666	-0.31692061274598565	0.0	1.4720452389631402	-0.3228879707031393	0.0	1.0606644510617789	-0.32529165946980343	0.0	1.2064709922800323	-0.4938913427344533	0.0	1.418017578125971	-0.49549497077362287	0.0
36	1.2044776119402987	0.987695031565601	-0.6990107403199587	0.0	0.9792718230644034	-0.6960978884463346	0.0	1.3894701755552972	-0.7909612540738326	0.0	1.374220394715613	-1.086030011064101	0.0	1.7930770487525316	-1.074929799993243	0.0	1.5729515014527662	-1.0996631814786415	0.0	1.3512973194252567	-1.1064858011046022	0.0	0.967824247742952	-0.7134882323285864	0.0	1.040621545389354	-1.071406664297467	0.0	1.3471620157495516	-1.0680344548117613	0.0	1.416982421875	-1.0925839843750003	0.0	1.4258959960937496	-1.08961279296875	0.0	1.233118652659852	-1.0844750978344238	0.0	1.0245529361215697	-0.22831163809049682	0.0	1.0693209615840504	-0.027303513545042155	0.0	1.08818180066404	-0.13638107565299068	0.0	0.9668500918656496	-0.25632485304788843	0.0	1.2092122591647947	-0.3149309767027337	0.0	1.4680358034147203	-0.3211294837451638	0.0	1.0714673751425674	-0.32969631060058346	0.0	1.215669484729868	-0.4913236845224234	0.0	1.4274354148307928	-0.4938476903914247	0.0
37	1.2379353233830848	0.9865072698215918	-0.694604401441404	0.0	0.9727528664804086	-0.6912847439491079	0.0	1.3909624541219818	-0.750857764494209	0.0	1.390477788709976	-1.0821104062915465	0.0	1.7510688011634286	-1.073194203011482	0.0	1.576172006544591	-1.0975148783858566	0.0	1.3683987048696078	-1.1052124787515032	0.0	0.9722241646640369	-0.710302537592011	0.0	1.0361214606401326	-1.073055406569248	0.0	1.36505159751351	-1.0667893408302316	0.0	1.416982421875	-1.0925839843750003	0.0	1.4258959960937496	-1.08961279296875	0.0	1.2331186529010203	-1.0844750978689517	0.0	1.0272583410916187	-0.2284796170655076	0.0	1.0722304382505385	-0.028873580119757717	0.0	1.0900287538514457	-0.1372093993445291	0.0	0.9674664277016676	-0.2564486890121021	0.0	1.206228422794199	-0.3141324198160094	0.0	1.4643270469118777	-0.32105061636673443	0.0	1.0802466385570155	-0.3329559806121696	0.0	1.223037026255977	-0.49001111400595915	0.0	1.4350885154495336	-0.4940631742464662	0.0
38	1.2713930348258708	0.9850946793914274	-0.6913215987424431	0.0	0.9674467507935528	-0.68741235925407	0.0	1.3901017608360038	-0.7180748602770699	0.0	1.4071609991676253	-1.0774124034569814	0.0	1.7046108617333968	-1.0708869136375245	0.0	1.580638707248147	-1.0948977170114886	0.0	1.3869818048318272	-1.1034405802986043	0.0	0.9746054640834071	-0.7082647104069867	0.0	1.031365426455989	-1.0733930210634228	0.0	1.389188576911963	-1.0650581144327433	0.0	1.416982421875	-1.0925839843750003	0.0	1.4258959960937496	-1.08961279296875	0.0	1.233118653120993	-1.084475097813566	0.0	1.0303427201296989	-0.22899454695264443	0.0	1.075632748230856	-0.030505544867642075	0.0	1.092559809515724	-0.13819434899334207	0.0	0.9689189826317796	-0.25659230931706284	0.0	1.2031878112787815	-0.3146040609179151	0.0	1.460746898849202	-0.3225569415001768	0.0	1.0867958229056311	-0.33470512787672546	0.0	1.2278047010728466	-0.49002196192877034	0.0	1.4401552253776795	-0.4959428604280527	0.0
39	1.304850746268657	0.9836982936798441	-0.6890789857317172	0.0	0.9638883357021093	-0.6844952968185009	0.0	1.3881284956007858	-0.6944725442475271	0.0	1.4214653815416902	-1.0731665864361692	0.0	1.6640738753159037	-1.0684720218719248	0.0	1.585414339604773	-1.0924189074217123	0.0	1.4028961183898543	-1.1016949264619684	0.0	0.9747170424882659	-0.7072459570135716	0.0	1.0271764726385464	-1.072709480526569	0.0	1.41481634426074	-1.063141271129252	0.0	1.416982421875	-1.0925839843750003	0.0	1.4258959960937496	-1.08961279296875	0.0	1.2331186531458387	-1.0844750975765691	0.0	1.0335495853764574	-0.22996311084219773	0.0	1.0793469156174582	-0.03207462427224792	0.0	1.0955569929255042	-0.13937461304997137	0.0	0.9709064656829712	-0.25702386138243044	0.0	1.2001547114354565	-0.31638556695063474	0.0	1.4572960370866535	-0.32565518319407827	0.0	1.0911506432991378	-0.33489973760090247	0.0	1.2299490342961048	-0.49111494712027925	0.0	1.4423062380103089	-0.49922851779466915	0.0
40	1.338308457711443	0.9826768121845357	-0.6876771345200469	0.0	0.962212182090527	-0.6824643763099747	0.0	1.386246991495002	-0.6811451151840824	0.0	1.4305660170374825	-1.0703707464941918	0.0	1.6350703045929202	-1.066551787459261	0.0	1.5885348182231878	-1.0907915646050612	0.0	1.412343682576049	-1.1005229436251238	0.0	0.9732763530620286	-0.7068055118321085	0.0	1.0239120500053112	-1.071537651864908	0.0	1.4350774721305237	-1.0615042918538142	0.0	1.416982421875	-1.0925839843750003	0.0	1.4258959960937496	-1.08961279296875	0.0	1.2331186526817548	-1.0844750970545332	0.0	1.0366475458476514	-0.23128189918737183	0.0	1.0830694742387337	-0.03345722223582945	0.0	1.098632376031177	-0.14070135740575515	0.0	0.9730438576391381	-0.2579177708057141	0.0	1.1970387723960958	-0.31948247791440604	0.0	1.4542343056845188	-0.3303480190451949	0.0	1.0935650468913967	-0.3339434220179073	0.0	1.2300221049293223	-0.49289551180850877	0.0	1.4417592102078018	-0.5037641767180834	0.0
41	1.3717661691542289	0.9823806828429498	-0.686954845720667	0.0	0.9624016540838511	-0.6813237099641898	0.0	1.385322378911686	-0.6785155378459798	0.0	1.4325649945475891	-1.069560310220809	0.0	1.6157863961513754	-1.0656109890313152	0.0	1.587136695873008	-1.0904970177290483	0.0	1.4132036639607928	-1.1002352120739414	0.0	0.9713350265733909	-0.7066062032223533	0.0	1.0215871600532056	-1.0703349910830364	0.0	1.4445140689862574	-1.0604842893731088	0.0	1.416982421875	-1.0925839843750003	0.0	1.4258959960937496	-1.08961279296875	0.0	1.233118651336594	-1.0844750961832186	0.0	1.0394412793319807	-0.23274563718800387	0.0	1.086395760497421	-0.03464159584050457	0.0	1.1013380042631684	-0.1419856261772414	0.0	0.9749856222220329	-0.25920257617839854	0.0	1.1936135146142175	-0.323868735660155	0.0	1.452013951587222	-0.33651777038979586	0.0	1.0944521731506023	-0.3325276885335662	0.0	1.2287079400969916	-0.4950041531374222	0.0	1.439073563066118	-0.5095196115815204	0.0
42	1.405223880597015	0.9830197167527569	-0.6869476380732766	0.0	0.9644123049001897	-0.6812999072382938	0.0	1.3856154678301433	-0.6865552165177445	0.0	1.426777683589956	-1.0707554682364047	0.0	1.6005920197071055	-1.0658432382453067	0.0	1.5779486176353439	-1.091522258875868	0.0	1.4052217206252284	-1.100755140845851	0.0	0.9697501318093847	-0.706672243647406	0.0	1.0201174736989145	-1.0691837463315708	0.0	1.4410554742112514	-1.0600398824365105	0.0	1.416982421875	-1.0925839843750003	0.0	1.4258959960937496	-1.08961279296875	0.0	1.233118648736292	-1.0844750950353073	0.0	1.0417909308943465	-0.23419855490798028	0.0	1.0890060420130545	-0.035705290041315084	0.0	1.103354828909755	-0.14296855850174645	0.0	0.9765160529518246	-0.26067701901074597	0.0	1.1898038567481914	-0.3295186668991245	0.0	1.4510464953528168	-0.34399969830315247	0.0	1.0943049337039037	-0.3313313804879447	0.0	1.2266709871579797	-0.4972564658095091	0.0	1.4350135179128631	-0.5164614139902083	0.0
43	1.438681592039801	0.984566197773222	-0.687873561052597	0.0	0.9681001406143922	-0.6826787925280717	0.0	1.386682109103189	-0.7048480298448705	0.0	1.413797571029901	-1.073476076226721	0.0	1.5841475683892645	-1.067104068184939	0.0	1.5583523078229424	-1.0933679777845702	0.0	1.3899923714893692	-1.1016028009422556	0.0	0.9689437424907117	-0.7072272103909537	0.0	1.019429912200925	-1.0678369178471583	0.0	1.4259987438227484	-1.059837604070855	0.0	1.416982421875	-1.0925839843750003	0.0	1.4258959960937496	-1.08961279296875	0.0	1.2331186447950921	-1.084475093967662	0.0	1.043607259870223	-0.23559629003207264	0.0	1.0908486728081401	-0.03671038885569541	0.0	1.1045927691941138	-0.14346682257121313	0.0	0.9776612413411825	-0.2622265156990495	0.0	1.1860358299153495	-0.3364723756195004	0.0	1.4515267663679374	-0.3527563692267477	0.0	1.0934332894361194	-0.3306736678119611	0.0	1.2245209853654297	-0.49976463648822966	0.0	1.4303099835568316	-0.5245312016823878	0.0
44	1.4721393034825871	0.9866918742946653	-0.6899172749770373	0.0	0.9730543044755382	-0.6854148238093749	0.0	1.3875124160484824	-0.7324692179162933	0.0	1.3956188888643641	-1.0769452517527083	0.0	1.5640277446075614	-1.0689821701359223	0.0	1.5286089299853876	-1.0953598935206068	0.0	1.3709992106717812	-1.1021964642493844	0.0	0.9686446320501111	-0.7084049504517974	0.0	1.019419428051797	-1.0661108353189108	0.0	1.4036792688415765	-1.0595938889732424	0.0	1.416982421875	-1.0925839843750003	0.0	1.4258959960937496	-1.08961279296875	0.0	1.2331186401817076	-1.084475093792308	0.0	1.0448547762756744	-0.23693522821404214	0.0	1.0921817325631062	-0.03760718289878852	0.0	1.1052113399826535	-0.14345966737124216	0.0	0.9787644943483665	-0.26383444291316127	0.0	1.1830940771359961	-0.34483617360612234	0.0	1.453361499896225	-0.36300755186018907	0.0	1.0917868816631737	-0.33044833210475727	0.0	1.2225249149572996	-0.5028595210053984	0.0	1.4252010144649725	-0.5337772487941749	0.0
